<svg width="132" height="88" viewBox="0 0 132 88" fill="none" xmlns="http://www.w3.org/2000/svg">
<path fill-rule="evenodd" clip-rule="evenodd" d="M53.1555 1.96893C51.9829 2.47895 50.5385 3.83365 49.9455 4.98018C48.9382 6.92789 47.6645 17.0861 47.6129 23.5784L47.5902 26.423H65.8544H84.1194L83.3048 16.7769C82.3832 5.86569 81.503 3.39525 78.0212 1.94015C74.8775 0.626958 56.1915 0.648376 53.1555 1.96893ZM1.1203 29.4825C-0.25849 30.8619 -0.208291 31.989 1.29298 33.3471C2.41342 34.3611 7.85562 34.4548 65.8337 34.4548C122.503 34.4548 129.261 34.3444 130.203 33.4033C131.639 31.967 131.525 29.961 129.96 29.1237C129.094 28.6605 107.736 28.431 65.4187 28.431C8.81474 28.431 2.06203 28.5414 1.1203 29.4825ZM8.7699 62.2314V88H12.4511H16.1324V62.2314V36.4627H12.4511H8.7699V62.2314ZM34.6764 36.8824C33.9154 37.6434 34.1336 40.81 35.007 41.6834C35.4488 42.1252 36.3524 42.4866 37.015 42.4866C38.0303 42.4866 38.2198 43.0702 38.2198 46.1979C38.2198 49.2299 38.5156 50.2058 39.8355 51.5257C40.7243 52.4139 42.3053 53.3496 43.3494 53.6046C44.3935 53.8589 45.9269 54.7357 46.7575 55.5523C48.3927 57.16 54.7739 59.2195 58.1212 59.2195C61.71 59.2195 62.3151 59.7609 62.3151 62.9723C62.3151 64.5894 62.6163 65.9126 62.9844 65.9126C63.3525 65.9126 63.6537 67.1174 63.6537 68.5899C63.6537 71.1185 63.7655 71.2671 65.6617 71.2671C67.5578 71.2671 67.6696 71.1185 67.6696 68.5899C67.6696 67.1174 67.9708 65.9126 68.3389 65.9126C68.707 65.9126 69.0082 64.5633 69.0082 62.9134C69.0082 59.615 68.9078 59.6813 75.0321 58.9424C79.7461 58.3741 82.7366 57.334 84.5859 55.6192C85.5236 54.7511 87.0965 53.8382 88.081 53.5905C89.0663 53.3435 90.599 52.4139 91.4879 51.5257C92.8077 50.2058 93.1036 49.2299 93.1036 46.1979C93.1036 43.0133 93.2823 42.4866 94.3606 42.4866C96.1383 42.4866 97.2527 40.8789 97.0003 38.6782C96.7855 36.8028 96.7701 36.7974 91.765 36.7974C86.7598 36.7974 86.7444 36.8028 86.5296 38.6782C86.2772 40.8789 87.3916 42.4866 89.1693 42.4866C90.1773 42.4866 90.4263 42.9879 90.4263 45.0146C90.4263 47.9462 88.8802 50.5184 87.1186 50.5184C86.4452 50.5184 85.0316 50.0686 83.9768 49.5184C81.165 48.0519 50.1583 48.0519 47.3465 49.5184C46.2917 50.0686 44.8781 50.5184 44.2048 50.5184C42.4431 50.5184 40.897 47.9462 40.897 45.0146C40.897 42.9879 41.146 42.4866 42.154 42.4866C43.9317 42.4866 45.0461 40.8789 44.7938 38.6782C44.5829 36.8362 44.4799 36.7934 39.8636 36.6033C37.2707 36.4969 34.9368 36.6227 34.6764 36.8824ZM47.6096 37.8375C48.0138 38.5932 49.3043 39.7966 50.4776 40.5121C52.3965 41.6821 53.9165 41.8126 65.6617 41.8126C77.4068 41.8126 78.9268 41.6821 80.8457 40.5121C82.0191 39.7966 83.3095 38.5932 83.7138 37.8375C84.448 36.4661 84.4052 36.4627 65.6617 36.4627C46.9182 36.4627 46.8753 36.4661 47.6096 37.8375ZM115.191 62.2314V88H118.872H122.553V62.2314V36.4627H118.872H115.191V62.2314ZM60.3071 45.1371C60.3071 46.4054 60.7154 46.5025 66.0452 46.5025C71.1494 46.5025 71.7591 46.3733 71.5597 45.3312C71.3723 44.3479 70.4493 44.1284 65.8216 43.9658C60.6532 43.7831 60.3071 43.8567 60.3071 45.1371ZM54.9526 74.3226C47.2742 75.9831 45.5822 77.1691 45.5822 80.8885C45.5822 81.8115 45.281 82.7526 44.9129 82.9801C43.846 83.6394 44.1358 85.6875 45.4678 86.8923C47.0989 88.3688 48.4603 88.2891 49.9629 86.6279C51.0291 85.4499 51.0934 84.96 50.416 83.1655C49.1463 79.8022 50.2694 79.2012 60.8091 77.6042C63.5741 77.1852 63.6537 77.2254 63.6537 79.0252C63.6537 80.0439 63.2956 81.8664 62.8586 83.0759C62.1725 84.9734 62.2328 85.4606 63.297 86.6373C63.9757 87.3869 65.0392 88 65.6617 88C66.2841 88 67.3477 87.3869 68.0264 86.6373C69.0906 85.4606 69.1508 84.9734 68.4648 83.0759C67.5197 80.4629 67.438 78.1825 68.27 77.6678C69.2378 77.0701 79.8485 79.143 80.8263 80.1208C81.5425 80.8377 81.5612 81.434 80.9187 83.1348C80.228 84.9653 80.2889 85.4439 81.3605 86.6279C82.93 88.3628 84.527 88.3728 86.0785 86.6587C87.1206 85.5068 87.1862 84.9633 86.5403 82.8101C86.1266 81.4313 85.6052 79.6222 85.3824 78.7896C85.1595 77.9576 84.0739 76.8091 82.9701 76.2388C77.6243 73.4739 63.3793 72.5 54.9526 74.3226Z" fill="#9191D6"/>
</svg>
