<svg width="347" height="189" viewBox="0 0 347 189" fill="none" xmlns="http://www.w3.org/2000/svg">
<path d="M38.3021 7.96163C37.7073 4.0237 40.7564 0.479534 44.739 0.479534H67.9669C71.901 0.479534 74.9361 3.94216 74.4207 7.84233L72.6196 21.4705H40.3425L38.3021 7.96163Z" fill="#9191D6" stroke="#737373" stroke-width="0.265709"/>
<path d="M90.1146 7.96163C89.5198 4.0237 92.5689 0.479534 96.5515 0.479534H119.779C123.714 0.479534 126.749 3.94216 126.233 7.84233L124.432 21.4705H92.155L90.1146 7.96163Z" fill="#9191D6" stroke="#737373" stroke-width="0.265709"/>
<path d="M141.929 7.96163C141.334 4.0237 144.383 0.479534 148.366 0.479534H171.594C175.528 0.479534 178.563 3.94216 178.048 7.84233L176.247 21.4705H143.969L141.929 7.96163Z" fill="#9191D6" stroke="#737373" stroke-width="0.265709"/>
<path d="M193.742 7.96163C193.147 4.0237 196.196 0.479534 200.178 0.479534H223.406C227.34 0.479534 230.376 3.94216 229.86 7.84233L228.059 21.4705H195.782L193.742 7.96163Z" fill="#9191D6" stroke="#737373" stroke-width="0.265709"/>
<path d="M245.554 7.96163C244.959 4.0237 248.008 0.479534 251.991 0.479534H275.219C279.153 0.479534 282.188 3.94216 281.673 7.84233L279.872 21.4705H247.594L245.554 7.96163Z" fill="#9191D6" stroke="#737373" stroke-width="0.265709"/>
<path d="M0.482422 24.9249C0.482422 23.0905 1.96944 21.6035 3.80378 21.6035H286.119C304.463 21.6035 319.333 36.4737 319.333 54.8171V134.53C319.333 152.873 304.463 167.743 286.119 167.743H3.80377C1.96943 167.743 0.482422 166.256 0.482422 164.422V24.9249Z" fill="#282850"/>
<path d="M105.477 97.3484C105.3 97.8798 105.034 98.3315 104.68 98.7035C104.326 99.0666 103.91 99.3412 103.431 99.5272C102.953 99.7132 102.426 99.8062 101.85 99.8062C101.009 99.8062 100.278 99.6246 99.6583 99.2615C99.0383 98.8984 98.56 98.3802 98.2235 97.7071C97.8869 97.034 97.7186 96.228 97.7186 95.2891C97.7186 94.3503 97.8869 93.5443 98.2235 92.8712C98.56 92.1981 99.0383 91.6799 99.6583 91.3168C100.278 90.9537 101.005 90.7721 101.837 90.7721C102.413 90.7721 102.931 90.8518 103.391 91.0112C103.861 91.1707 104.259 91.4098 104.587 91.7287C104.915 92.0475 105.167 92.4461 105.344 92.9243L104.003 93.5222C103.825 92.9996 103.569 92.6188 103.232 92.3796C102.896 92.1316 102.457 92.0076 101.917 92.0076C101.377 92.0076 100.903 92.1361 100.495 92.3929C100.088 92.6498 99.769 93.0218 99.5387 93.5089C99.3173 93.996 99.2066 94.5894 99.2066 95.2891C99.2066 95.98 99.3129 96.5734 99.5254 97.0694C99.738 97.5565 100.044 97.9285 100.442 98.1854C100.841 98.4422 101.319 98.5706 101.877 98.5706C102.417 98.5706 102.882 98.4334 103.272 98.1588C103.67 97.8754 103.954 97.4547 104.122 96.8967L105.477 97.3484ZM110.64 92.8978C111.286 92.8978 111.858 93.0351 112.354 93.3096C112.85 93.5842 113.235 93.9827 113.51 94.5053C113.793 95.019 113.935 95.6346 113.935 96.352C113.935 97.0694 113.793 97.6894 113.51 98.2119C113.235 98.7256 112.85 99.1198 112.354 99.3943C111.858 99.6689 111.286 99.8062 110.64 99.8062C109.993 99.8062 109.422 99.6689 108.926 99.3943C108.43 99.1198 108.04 98.7256 107.757 98.2119C107.474 97.6894 107.332 97.0694 107.332 96.352C107.332 95.6346 107.474 95.019 107.757 94.5053C108.04 93.9827 108.43 93.5842 108.926 93.3096C109.422 93.0351 109.993 92.8978 110.64 92.8978ZM110.64 94.0137C110.241 94.0137 109.9 94.1067 109.617 94.2927C109.342 94.4699 109.13 94.7312 108.979 95.0766C108.829 95.422 108.753 95.8471 108.753 96.352C108.753 96.848 108.829 97.2731 108.979 97.6274C109.13 97.9728 109.342 98.2385 109.617 98.4245C109.9 98.6016 110.241 98.6902 110.64 98.6902C111.039 98.6902 111.375 98.6016 111.65 98.4245C111.924 98.2385 112.137 97.9728 112.287 97.6274C112.438 97.2731 112.513 96.848 112.513 96.352C112.513 95.8471 112.438 95.422 112.287 95.0766C112.137 94.7312 111.924 94.4699 111.65 94.2927C111.375 94.1067 111.039 94.0137 110.64 94.0137ZM116.387 99.6733V93.0306H117.649L117.742 94.7577L117.556 94.5717C117.68 94.1909 117.858 93.8765 118.088 93.6285C118.327 93.3716 118.606 93.1856 118.925 93.0705C119.253 92.9553 119.598 92.8978 119.961 92.8978C120.431 92.8978 120.851 92.9908 121.223 93.1768C121.604 93.3539 121.905 93.624 122.127 93.9872C122.348 94.3503 122.459 94.8109 122.459 95.3689V99.6733H121.037V95.8073C121.037 95.1519 120.9 94.7002 120.625 94.4522C120.36 94.1953 120.023 94.0669 119.616 94.0669C119.323 94.0669 119.04 94.1377 118.765 94.2795C118.491 94.4123 118.261 94.6293 118.075 94.9304C117.897 95.2316 117.809 95.6346 117.809 96.1394V99.6733H116.387ZM128.016 89.9484C128.29 89.9484 128.538 89.9794 128.76 90.0414C128.99 90.0945 129.163 90.1698 129.278 90.2673L129.012 91.2902C128.915 91.2282 128.804 91.1839 128.68 91.1574C128.556 91.122 128.414 91.1042 128.255 91.1042C127.892 91.1042 127.604 91.1884 127.391 91.3567C127.188 91.5249 127.086 91.7995 127.086 92.1804V93.1502L127.126 93.5089V99.6733H125.704V92.0741C125.704 91.7375 125.753 91.4364 125.85 91.1707C125.957 90.905 126.112 90.6835 126.315 90.5064C126.519 90.3204 126.763 90.1831 127.046 90.0945C127.338 89.9971 127.662 89.9484 128.016 89.9484ZM129.238 93.0306V94.1466H124.455V93.0306H129.238ZM133.963 99.8062C133.299 99.8062 132.714 99.6689 132.209 99.3943C131.705 99.1198 131.31 98.7256 131.027 98.2119C130.752 97.6894 130.615 97.0694 130.615 96.352C130.615 95.6346 130.752 95.019 131.027 94.5053C131.31 93.9827 131.7 93.5842 132.196 93.3096C132.692 93.0351 133.254 92.8978 133.883 92.8978C134.53 92.8978 135.079 93.0306 135.531 93.2963C135.982 93.562 136.328 93.9252 136.567 94.3857C136.806 94.8463 136.926 95.3689 136.926 95.9534C136.926 96.1128 136.921 96.2634 136.912 96.4051C136.904 96.5468 136.89 96.6708 136.873 96.7771H131.532V95.6877H136.248L135.544 95.9003C135.544 95.298 135.393 94.8374 135.092 94.5186C134.791 94.1909 134.379 94.027 133.857 94.027C133.476 94.027 133.144 94.1156 132.86 94.2927C132.577 94.4699 132.36 94.7356 132.209 95.0899C132.059 95.4353 131.984 95.8604 131.984 96.3653C131.984 96.8613 132.063 97.282 132.223 97.6274C132.382 97.9728 132.608 98.2341 132.9 98.4112C133.192 98.5884 133.538 98.6769 133.936 98.6769C134.379 98.6769 134.738 98.5928 135.013 98.4245C135.287 98.2562 135.504 98.0215 135.664 97.7204L136.793 98.2518C136.633 98.5706 136.416 98.8496 136.142 99.0888C135.876 99.3191 135.557 99.4962 135.185 99.6202C134.813 99.7442 134.406 99.8062 133.963 99.8062ZM139.385 99.6733V93.0306H140.594L140.727 94.2263C140.904 93.7923 141.165 93.4646 141.511 93.2432C141.865 93.0129 142.299 92.8978 142.813 92.8978C142.946 92.8978 143.078 92.9111 143.211 92.9376C143.344 92.9553 143.455 92.9863 143.543 93.0306L143.344 94.2795C143.247 94.244 143.136 94.2175 143.012 94.1997C142.897 94.1732 142.738 94.1599 142.534 94.1599C142.259 94.1599 141.989 94.2352 141.723 94.3857C141.458 94.5274 141.236 94.7444 141.059 95.0367C140.891 95.329 140.807 95.701 140.807 96.1527V99.6733H139.385ZM148.305 99.8062C147.64 99.8062 147.056 99.6689 146.551 99.3943C146.046 99.1198 145.652 98.7256 145.368 98.2119C145.094 97.6894 144.957 97.0694 144.957 96.352C144.957 95.6346 145.094 95.019 145.368 94.5053C145.652 93.9827 146.042 93.5842 146.538 93.3096C147.034 93.0351 147.596 92.8978 148.225 92.8978C148.871 92.8978 149.421 93.0306 149.872 93.2963C150.324 93.562 150.669 93.9252 150.908 94.3857C151.148 94.8463 151.267 95.3689 151.267 95.9534C151.267 96.1128 151.263 96.2634 151.254 96.4051C151.245 96.5468 151.232 96.6708 151.214 96.7771H145.873V95.6877H150.59L149.886 95.9003C149.886 95.298 149.735 94.8374 149.434 94.5186C149.133 94.1909 148.721 94.027 148.198 94.027C147.817 94.027 147.485 94.1156 147.202 94.2927C146.918 94.4699 146.701 94.7356 146.551 95.0899C146.4 95.4353 146.325 95.8604 146.325 96.3653C146.325 96.8613 146.405 97.282 146.564 97.6274C146.724 97.9728 146.949 98.2341 147.242 98.4112C147.534 98.5884 147.879 98.6769 148.278 98.6769C148.721 98.6769 149.08 98.5928 149.354 98.4245C149.629 98.2562 149.846 98.0215 150.005 97.7204L151.134 98.2518C150.975 98.5706 150.758 98.8496 150.483 99.0888C150.218 99.3191 149.899 99.4962 149.527 99.6202C149.155 99.7442 148.747 99.8062 148.305 99.8062ZM153.727 99.6733V93.0306H154.989L155.082 94.7577L154.896 94.5717C155.02 94.1909 155.197 93.8765 155.427 93.6285C155.666 93.3716 155.945 93.1856 156.264 93.0705C156.592 92.9553 156.937 92.8978 157.3 92.8978C157.77 92.8978 158.191 92.9908 158.563 93.1768C158.943 93.3539 159.245 93.624 159.466 93.9872C159.687 94.3503 159.798 94.8109 159.798 95.3689V99.6733H158.377V95.8073C158.377 95.1519 158.239 94.7002 157.965 94.4522C157.699 94.1953 157.362 94.0669 156.955 94.0669C156.663 94.0669 156.379 94.1377 156.105 94.2795C155.83 94.4123 155.6 94.6293 155.414 94.9304C155.237 95.2316 155.148 95.6346 155.148 96.1394V99.6733H153.727ZM165.486 92.8978C166.018 92.8978 166.469 92.9775 166.841 93.1369C167.222 93.2875 167.541 93.5045 167.798 93.7879C168.055 94.0713 168.25 94.3946 168.382 94.7577L167.041 95.2891C166.925 94.8817 166.739 94.5717 166.483 94.3592C166.235 94.1377 165.907 94.027 165.499 94.027C165.101 94.027 164.76 94.12 164.476 94.306C164.193 94.4832 163.976 94.7444 163.825 95.0899C163.684 95.4353 163.613 95.8604 163.613 96.3653C163.613 96.8613 163.688 97.282 163.839 97.6274C163.989 97.9728 164.206 98.2341 164.49 98.4112C164.773 98.5884 165.11 98.6769 165.499 98.6769C165.801 98.6769 166.062 98.6282 166.283 98.5308C166.505 98.4245 166.686 98.2784 166.828 98.0924C166.979 97.8975 167.08 97.6628 167.134 97.3882L168.422 97.8267C168.298 98.2252 168.103 98.5751 167.838 98.8762C167.581 99.1685 167.258 99.3988 166.868 99.5671C166.478 99.7265 166.031 99.8062 165.526 99.8062C164.871 99.8062 164.29 99.6689 163.786 99.3943C163.281 99.1198 162.887 98.7256 162.603 98.2119C162.329 97.6894 162.191 97.0694 162.191 96.352C162.191 95.6346 162.329 95.019 162.603 94.5053C162.887 93.9827 163.276 93.5842 163.772 93.3096C164.277 93.0351 164.848 92.8978 165.486 92.8978ZM173.664 99.8062C172.999 99.8062 172.415 99.6689 171.91 99.3943C171.405 99.1198 171.011 98.7256 170.728 98.2119C170.453 97.6894 170.316 97.0694 170.316 96.352C170.316 95.6346 170.453 95.019 170.728 94.5053C171.011 93.9827 171.401 93.5842 171.897 93.3096C172.393 93.0351 172.955 92.8978 173.584 92.8978C174.23 92.8978 174.78 93.0306 175.231 93.2963C175.683 93.562 176.028 93.9252 176.268 94.3857C176.507 94.8463 176.626 95.3689 176.626 95.9534C176.626 96.1128 176.622 96.2634 176.613 96.4051C176.604 96.5468 176.591 96.6708 176.573 96.7771H171.232V95.6877H175.949L175.245 95.9003C175.245 95.298 175.094 94.8374 174.793 94.5186C174.492 94.1909 174.08 94.027 173.557 94.027C173.177 94.027 172.844 94.1156 172.561 94.2927C172.278 94.4699 172.061 94.7356 171.91 95.0899C171.759 95.4353 171.684 95.8604 171.684 96.3653C171.684 96.8613 171.764 97.282 171.923 97.6274C172.083 97.9728 172.309 98.2341 172.601 98.4112C172.893 98.5884 173.239 98.6769 173.637 98.6769C174.08 98.6769 174.439 98.5928 174.713 98.4245C174.988 98.2562 175.205 98.0215 175.364 97.7204L176.493 98.2518C176.334 98.5706 176.117 98.8496 175.842 99.0888C175.577 99.3191 175.258 99.4962 174.886 99.6202C174.514 99.7442 174.106 99.8062 173.664 99.8062ZM187.843 90.905C188.782 90.905 189.526 91.1397 190.075 91.6091C190.633 92.0785 190.912 92.7118 190.912 93.5089C190.912 94.3326 190.633 94.9703 190.075 95.422C189.526 95.8648 188.782 96.0863 187.843 96.0863L187.711 96.166H185.678V99.6733H184.27V90.905H187.843ZM187.737 94.9836C188.313 94.9836 188.738 94.8684 189.013 94.6382C189.296 94.399 189.438 94.0359 189.438 93.5488C189.438 93.0705 189.296 92.7118 189.013 92.4726C188.738 92.2335 188.313 92.1139 187.737 92.1139H185.678V94.9836H187.737ZM188.574 95.2759L191.431 99.6733H189.796L187.352 95.8339L188.574 95.2759ZM196.362 92.8978C197.009 92.8978 197.58 93.0351 198.076 93.3096C198.572 93.5842 198.957 93.9827 199.232 94.5053C199.515 95.019 199.657 95.6346 199.657 96.352C199.657 97.0694 199.515 97.6894 199.232 98.2119C198.957 98.7256 198.572 99.1198 198.076 99.3943C197.58 99.6689 197.009 99.8062 196.362 99.8062C195.716 99.8062 195.144 99.6689 194.648 99.3943C194.152 99.1198 193.763 98.7256 193.479 98.2119C193.196 97.6894 193.054 97.0694 193.054 96.352C193.054 95.6346 193.196 95.019 193.479 94.5053C193.763 93.9827 194.152 93.5842 194.648 93.3096C195.144 93.0351 195.716 92.8978 196.362 92.8978ZM196.362 94.0137C195.964 94.0137 195.623 94.1067 195.339 94.2927C195.065 94.4699 194.852 94.7312 194.701 95.0766C194.551 95.422 194.476 95.8471 194.476 96.352C194.476 96.848 194.551 97.2731 194.701 97.6274C194.852 97.9728 195.065 98.2385 195.339 98.4245C195.623 98.6016 195.964 98.6902 196.362 98.6902C196.761 98.6902 197.097 98.6016 197.372 98.4245C197.646 98.2385 197.859 97.9728 198.01 97.6274C198.16 97.2731 198.235 96.848 198.235 96.352C198.235 95.8471 198.16 95.422 198.01 95.0766C197.859 94.7312 197.646 94.4699 197.372 94.2927C197.097 94.1067 196.761 94.0137 196.362 94.0137ZM204.992 92.8978C205.639 92.8978 206.21 93.0351 206.706 93.3096C207.202 93.5842 207.588 93.9827 207.862 94.5053C208.146 95.019 208.287 95.6346 208.287 96.352C208.287 97.0694 208.146 97.6894 207.862 98.2119C207.588 98.7256 207.202 99.1198 206.706 99.3943C206.21 99.6689 205.639 99.8062 204.992 99.8062C204.346 99.8062 203.775 99.6689 203.279 99.3943C202.783 99.1198 202.393 98.7256 202.11 98.2119C201.826 97.6894 201.684 97.0694 201.684 96.352C201.684 95.6346 201.826 95.019 202.11 94.5053C202.393 93.9827 202.783 93.5842 203.279 93.3096C203.775 93.0351 204.346 92.8978 204.992 92.8978ZM204.992 94.0137C204.594 94.0137 204.253 94.1067 203.969 94.2927C203.695 94.4699 203.482 94.7312 203.332 95.0766C203.181 95.422 203.106 95.8471 203.106 96.352C203.106 96.848 203.181 97.2731 203.332 97.6274C203.482 97.9728 203.695 98.2385 203.969 98.4245C204.253 98.6016 204.594 98.6902 204.992 98.6902C205.391 98.6902 205.728 98.6016 206.002 98.4245C206.277 98.2385 206.489 97.9728 206.64 97.6274C206.79 97.2731 206.866 96.848 206.866 96.352C206.866 95.8471 206.79 95.422 206.64 95.0766C206.489 94.7312 206.277 94.4699 206.002 94.2927C205.728 94.1067 205.391 94.0137 204.992 94.0137ZM210.74 99.6733V93.0306H212.002L212.068 94.1466C212.299 93.7215 212.604 93.407 212.985 93.2033C213.375 92.9996 213.787 92.8978 214.221 92.8978C214.699 92.8978 215.137 93.0085 215.536 93.2299C215.943 93.4425 216.249 93.7658 216.453 94.1997C216.594 93.9075 216.789 93.6639 217.037 93.469C217.285 93.2742 217.56 93.1325 217.861 93.0439C218.162 92.9465 218.459 92.8978 218.751 92.8978C219.176 92.8978 219.575 92.9863 219.947 93.1635C220.319 93.3406 220.62 93.6108 220.85 93.9739C221.08 94.337 221.195 94.802 221.195 95.3689V99.6733H219.774V95.5947C219.774 95.0544 219.646 94.6647 219.389 94.4256C219.132 94.1865 218.804 94.0669 218.406 94.0669C218.096 94.0669 217.808 94.1422 217.542 94.2927C217.285 94.4433 217.077 94.6692 216.918 94.9703C216.758 95.2626 216.678 95.6257 216.678 96.0597V99.6733H215.257V95.5947C215.257 95.0544 215.128 94.6647 214.872 94.4256C214.615 94.1865 214.287 94.0669 213.888 94.0669C213.623 94.0669 213.357 94.1377 213.091 94.2795C212.826 94.4212 212.604 94.6426 212.427 94.9437C212.25 95.2449 212.161 95.6434 212.161 96.1394V99.6733H210.74Z" fill="white"/>
<path d="M38.3021 181.385C37.7073 185.323 40.7564 188.867 44.739 188.867H67.9669C71.901 188.867 74.9361 185.404 74.4207 181.504L72.6196 167.876H40.3425L38.3021 181.385Z" fill="#9191D6" stroke="#737373" stroke-width="0.265709"/>
<path d="M90.1146 181.385C89.5198 185.323 92.5689 188.867 96.5515 188.867H119.779C123.714 188.867 126.749 185.404 126.233 181.504L124.432 167.876H92.155L90.1146 181.385Z" fill="#9191D6" stroke="#737373" stroke-width="0.265709"/>
<path d="M141.929 181.385C141.334 185.323 144.383 188.867 148.366 188.867H171.594C175.528 188.867 178.563 185.404 178.048 181.504L176.247 167.876H143.969L141.929 181.385Z" fill="#9191D6" stroke="#737373" stroke-width="0.265709"/>
<path d="M193.742 181.385C193.147 185.323 196.196 188.867 200.178 188.867H223.406C227.34 188.867 230.376 185.404 229.86 181.504L228.059 167.876H195.782L193.742 181.385Z" fill="#9191D6" stroke="#737373" stroke-width="0.265709"/>
<path d="M245.554 181.385C244.959 185.323 248.008 188.867 251.991 188.867H275.219C279.153 188.867 282.188 185.404 281.673 181.504L279.872 167.876H247.594L245.554 181.385Z" fill="#9191D6" stroke="#737373" stroke-width="0.265709"/>
<path d="M332.973 53.43C336.911 52.8353 340.455 55.8843 340.455 59.8669V83.0949C340.455 87.0289 336.992 90.0641 333.092 89.5486L319.464 87.7475V55.4704L332.973 53.43Z" fill="#9191D6" stroke="#737373" stroke-width="0.265709"/>
<path d="M332.973 99.9579C336.911 99.3631 340.455 102.412 340.455 106.395V129.623C340.455 133.557 336.992 136.592 333.092 136.076L319.464 134.275V101.998L332.973 99.9579Z" fill="#9191D6" stroke="#737373" stroke-width="0.265709"/>
</svg>
