<svg width="255" height="117" viewBox="0 0 255 117" fill="none" xmlns="http://www.w3.org/2000/svg">
<path d="M14.0251 17.7235C10.0872 17.1287 6.54301 20.1778 6.54301 24.1604V47.3883C6.54301 51.3224 10.0056 54.3575 13.9058 53.8421L27.534 52.041V19.7639L14.0251 17.7235Z" fill="#9191D6" stroke="#737373" stroke-width="0.265709"/>
<path d="M14.0251 64.2513C10.0872 63.6565 6.54301 66.7056 6.54301 70.6882V93.9162C6.54301 97.8502 10.0056 100.885 13.9058 100.37L27.534 98.5688V66.2917L14.0251 64.2513Z" fill="#9191D6" stroke="#737373" stroke-width="0.265709"/>
<rect x="27.666" y="0.966797" width="200" height="116" rx="20" fill="#282850"/>
<path d="M87.4357 55.1984V63.9668H86.1204V58.8918L86.2267 56.4738H86.2134L83.543 63.9668H82.3606L79.6902 56.4738H79.677L79.7832 58.8918V63.9668H78.468V55.1984H80.5804L82.3473 60.2734L82.9585 62.3593H82.985L83.6094 60.2734L85.3631 55.1984H87.4357ZM93.3378 64.0997C92.6735 64.0997 92.089 63.9624 91.5841 63.6878C91.0793 63.4132 90.6852 63.0191 90.4017 62.5054C90.1272 61.9828 89.9899 61.3629 89.9899 60.6454C89.9899 59.928 90.1272 59.3125 90.4017 58.7988C90.6852 58.2762 91.0749 57.8776 91.5708 57.6031C92.0668 57.3285 92.6293 57.1912 93.2581 57.1912C93.9047 57.1912 94.4538 57.3241 94.9055 57.5898C95.3572 57.8555 95.7026 58.2186 95.9418 58.6792C96.1809 59.1398 96.3005 59.6623 96.3005 60.2469C96.3005 60.4063 96.296 60.5569 96.2872 60.6986C96.2783 60.8403 96.265 60.9643 96.2473 61.0706H90.9066V59.9812H95.6229L94.9188 60.1937C94.9188 59.5915 94.7682 59.1309 94.4671 58.812C94.1659 58.4843 93.7541 58.3205 93.2315 58.3205C92.8507 58.3205 92.5185 58.4091 92.2351 58.5862C91.9517 58.7633 91.7347 59.029 91.5841 59.3833C91.4336 59.7287 91.3583 60.1539 91.3583 60.6587C91.3583 61.1547 91.438 61.5754 91.5974 61.9208C91.7568 62.2663 91.9827 62.5275 92.275 62.7047C92.5673 62.8818 92.9127 62.9704 93.3112 62.9704C93.7541 62.9704 94.1128 62.8862 94.3874 62.718C94.6619 62.5497 94.8789 62.315 95.0383 62.0138L96.1676 62.5453C96.0082 62.8641 95.7912 63.1431 95.5166 63.3822C95.2509 63.6125 94.9321 63.7897 94.5601 63.9137C94.1881 64.0377 93.7807 64.0997 93.3378 64.0997ZM101.683 64.0997C101.018 64.0997 100.434 63.9624 99.929 63.6878C99.4242 63.4132 99.0301 63.0191 98.7466 62.5054C98.4721 61.9828 98.3348 61.3629 98.3348 60.6454C98.3348 59.928 98.4721 59.3125 98.7466 58.7988C99.0301 58.2762 99.4198 57.8776 99.9158 57.6031C100.412 57.3285 100.974 57.1912 101.603 57.1912C102.25 57.1912 102.799 57.3241 103.25 57.5898C103.702 57.8555 104.048 58.2186 104.287 58.6792C104.526 59.1398 104.645 59.6623 104.645 60.2469C104.645 60.4063 104.641 60.5569 104.632 60.6986C104.623 60.8403 104.61 60.9643 104.592 61.0706H99.2515V59.9812H103.968L103.264 60.1937C103.264 59.5915 103.113 59.1309 102.812 58.812C102.511 58.4843 102.099 58.3205 101.576 58.3205C101.196 58.3205 100.863 58.4091 100.58 58.5862C100.297 58.7633 100.08 59.029 99.929 59.3833C99.7785 59.7287 99.7032 60.1539 99.7032 60.6587C99.7032 61.1547 99.7829 61.5754 99.9423 61.9208C100.102 62.2663 100.328 62.5275 100.62 62.7047C100.912 62.8818 101.258 62.9704 101.656 62.9704C102.099 62.9704 102.458 62.8862 102.732 62.718C103.007 62.5497 103.224 62.315 103.383 62.0138L104.513 62.5453C104.353 62.8641 104.136 63.1431 103.862 63.3822C103.596 63.6125 103.277 63.7897 102.905 63.9137C102.533 64.0377 102.126 64.0997 101.683 64.0997ZM108.889 55.3711V61.974C108.889 62.3017 108.973 62.5408 109.141 62.6914C109.318 62.842 109.553 62.9172 109.845 62.9172C110.085 62.9172 110.293 62.8818 110.47 62.811C110.647 62.7313 110.811 62.625 110.961 62.4921L111.28 63.5284C111.076 63.7055 110.824 63.8472 110.523 63.9535C110.231 64.0509 109.903 64.0997 109.54 64.0997C109.159 64.0997 108.809 64.0377 108.49 63.9137C108.171 63.7897 107.923 63.5904 107.746 63.3158C107.569 63.0324 107.476 62.6648 107.467 62.2131V55.7697L108.889 55.3711ZM111.174 57.3241V58.4401H106.192V57.3241H111.174ZM113.962 56.2081C113.652 56.2081 113.412 56.1328 113.244 55.9823C113.085 55.8228 113.005 55.6014 113.005 55.318C113.005 55.0346 113.085 54.8176 113.244 54.667C113.412 54.5164 113.652 54.4411 113.962 54.4411C114.263 54.4411 114.493 54.5164 114.652 54.667C114.821 54.8176 114.905 55.0346 114.905 55.318C114.905 55.6014 114.821 55.8228 114.652 55.9823C114.493 56.1328 114.263 56.2081 113.962 56.2081ZM114.666 57.3241V63.9668H113.244V57.3241H114.666ZM117.554 63.9668V57.3241H118.816L118.909 59.0512L118.723 58.8652C118.847 58.4843 119.024 58.1699 119.255 57.9219C119.494 57.6651 119.773 57.4791 120.092 57.3639C120.419 57.2488 120.765 57.1912 121.128 57.1912C121.597 57.1912 122.018 57.2842 122.39 57.4702C122.771 57.6474 123.072 57.9175 123.293 58.2806C123.515 58.6438 123.626 59.1043 123.626 59.6623V63.9668H122.204V60.1007C122.204 59.4453 122.067 58.9936 121.792 58.7456C121.526 58.4888 121.19 58.3603 120.783 58.3603C120.49 58.3603 120.207 58.4312 119.932 58.5729C119.658 58.7058 119.427 58.9228 119.241 59.2239C119.064 59.525 118.976 59.928 118.976 60.4329V63.9668H117.554ZM132.29 55.9291L132.515 57.0451C132.489 57.0451 132.462 57.0451 132.436 57.0451C132.409 57.0362 132.383 57.0318 132.356 57.0318C131.931 57.0318 131.608 57.1248 131.386 57.3108C131.165 57.4879 131.054 57.7492 131.054 58.0946L130.363 57.7758C130.363 57.4215 130.438 57.1071 130.589 56.8325C130.74 56.5491 130.952 56.3277 131.227 56.1682C131.51 56.0088 131.829 55.9291 132.183 55.9291C132.201 55.9291 132.219 55.9291 132.236 55.9291C132.254 55.9291 132.272 55.9291 132.29 55.9291ZM130.19 62.9305C130.864 62.9305 131.386 63.0811 131.758 63.3822C132.13 63.6745 132.316 64.0819 132.316 64.6045C132.316 65.0651 132.17 65.4592 131.878 65.7869C131.585 66.1235 131.187 66.3803 130.682 66.5575C130.186 66.7346 129.615 66.8232 128.968 66.8232C127.879 66.8232 127.073 66.6549 126.55 66.3183C126.028 65.9818 125.766 65.561 125.766 65.0562C125.766 64.7019 125.89 64.3919 126.138 64.1262C126.395 63.8605 126.825 63.7099 127.427 63.6745L127.347 63.8871C126.975 63.8074 126.674 63.6657 126.444 63.462C126.223 63.2494 126.112 62.9527 126.112 62.5718C126.112 62.191 126.258 61.8677 126.55 61.602C126.843 61.3363 127.254 61.1813 127.786 61.137L128.53 61.4957H128.37C127.963 61.5311 127.675 61.6241 127.507 61.7747C127.339 61.9253 127.254 62.0936 127.254 62.2795C127.254 62.501 127.334 62.6648 127.494 62.7711C127.662 62.8774 127.897 62.9305 128.198 62.9305H130.19ZM128.968 65.7603C129.455 65.7603 129.854 65.7116 130.164 65.6142C130.483 65.5256 130.717 65.4061 130.868 65.2555C131.027 65.1138 131.107 64.9543 131.107 64.7772C131.107 64.5735 131.023 64.4096 130.855 64.2856C130.695 64.1616 130.403 64.0997 129.978 64.0997H127.839C127.591 64.0997 127.383 64.1616 127.215 64.2856C127.046 64.4185 126.962 64.5956 126.962 64.8171C126.962 65.1093 127.139 65.3396 127.494 65.5079C127.848 65.6762 128.339 65.7603 128.968 65.7603ZM128.915 57.1912C129.5 57.1912 130.004 57.2842 130.43 57.4702C130.864 57.6562 131.196 57.9175 131.426 58.2541C131.665 58.5906 131.785 58.9848 131.785 59.4365C131.785 59.8882 131.665 60.2823 131.426 60.6189C131.196 60.9554 130.864 61.2167 130.43 61.4027C130.004 61.5887 129.5 61.6817 128.915 61.6817C127.994 61.6817 127.285 61.478 126.789 61.0706C126.302 60.6543 126.059 60.1096 126.059 59.4365C126.059 58.9848 126.178 58.5906 126.417 58.2541C126.657 57.9175 126.989 57.6562 127.414 57.4702C127.848 57.2842 128.348 57.1912 128.915 57.1912ZM128.915 58.1876C128.508 58.1876 128.167 58.3028 127.892 58.5331C127.626 58.7545 127.494 59.0556 127.494 59.4365C127.494 59.8173 127.626 60.1229 127.892 60.3532C128.167 60.5834 128.508 60.6986 128.915 60.6986C129.331 60.6986 129.672 60.5834 129.938 60.3532C130.213 60.1229 130.35 59.8173 130.35 59.4365C130.35 59.0556 130.213 58.7545 129.938 58.5331C129.672 58.3028 129.331 58.1876 128.915 58.1876ZM143.041 55.1984C143.979 55.1984 144.723 55.4331 145.273 55.9025C145.831 56.372 146.11 57.0052 146.11 57.8024C146.11 58.6261 145.831 59.2638 145.273 59.7155C144.723 60.1583 143.979 60.3797 143.041 60.3797L142.908 60.4594H140.875V63.9668H139.467V55.1984H143.041ZM142.934 59.277C143.51 59.277 143.935 59.1619 144.21 58.9316C144.493 58.6925 144.635 58.3293 144.635 57.8422C144.635 57.3639 144.493 57.0052 144.21 56.7661C143.935 56.527 143.51 56.4074 142.934 56.4074H140.875V59.277H142.934ZM143.771 59.5693L146.628 63.9668H144.994L142.549 60.1273L143.771 59.5693ZM151.559 57.1912C152.206 57.1912 152.777 57.3285 153.273 57.6031C153.769 57.8776 154.154 58.2762 154.429 58.7988C154.712 59.3125 154.854 59.928 154.854 60.6454C154.854 61.3629 154.712 61.9828 154.429 62.5054C154.154 63.0191 153.769 63.4132 153.273 63.6878C152.777 63.9624 152.206 64.0997 151.559 64.0997C150.913 64.0997 150.341 63.9624 149.845 63.6878C149.349 63.4132 148.96 63.0191 148.676 62.5054C148.393 61.9828 148.251 61.3629 148.251 60.6454C148.251 59.928 148.393 59.3125 148.676 58.7988C148.96 58.2762 149.349 57.8776 149.845 57.6031C150.341 57.3285 150.913 57.1912 151.559 57.1912ZM151.559 58.3072C151.161 58.3072 150.82 58.4002 150.536 58.5862C150.262 58.7633 150.049 59.0246 149.899 59.37C149.748 59.7155 149.673 60.1406 149.673 60.6454C149.673 61.1414 149.748 61.5666 149.899 61.9208C150.049 62.2663 150.262 62.532 150.536 62.718C150.82 62.8951 151.161 62.9837 151.559 62.9837C151.958 62.9837 152.294 62.8951 152.569 62.718C152.843 62.532 153.056 62.2663 153.207 61.9208C153.357 61.5666 153.432 61.1414 153.432 60.6454C153.432 60.1406 153.357 59.7155 153.207 59.37C153.056 59.0246 152.843 58.7633 152.569 58.5862C152.294 58.4002 151.958 58.3072 151.559 58.3072ZM160.19 57.1912C160.836 57.1912 161.407 57.3285 161.903 57.6031C162.399 57.8776 162.785 58.2762 163.059 58.7988C163.343 59.3125 163.484 59.928 163.484 60.6454C163.484 61.3629 163.343 61.9828 163.059 62.5054C162.785 63.0191 162.399 63.4132 161.903 63.6878C161.407 63.9624 160.836 64.0997 160.19 64.0997C159.543 64.0997 158.972 63.9624 158.476 63.6878C157.98 63.4132 157.59 63.0191 157.307 62.5054C157.023 61.9828 156.882 61.3629 156.882 60.6454C156.882 59.928 157.023 59.3125 157.307 58.7988C157.59 58.2762 157.98 57.8776 158.476 57.6031C158.972 57.3285 159.543 57.1912 160.19 57.1912ZM160.19 58.3072C159.791 58.3072 159.45 58.4002 159.167 58.5862C158.892 58.7633 158.679 59.0246 158.529 59.37C158.378 59.7155 158.303 60.1406 158.303 60.6454C158.303 61.1414 158.378 61.5666 158.529 61.9208C158.679 62.2663 158.892 62.532 159.167 62.718C159.45 62.8951 159.791 62.9837 160.19 62.9837C160.588 62.9837 160.925 62.8951 161.199 62.718C161.474 62.532 161.686 62.2663 161.837 61.9208C161.988 61.5666 162.063 61.1414 162.063 60.6454C162.063 60.1406 161.988 59.7155 161.837 59.37C161.686 59.0246 161.474 58.7633 161.199 58.5862C160.925 58.4002 160.588 58.3072 160.19 58.3072ZM165.937 63.9668V57.3241H167.199L167.266 58.4401C167.496 58.0149 167.801 57.7005 168.182 57.4968C168.572 57.2931 168.984 57.1912 169.418 57.1912C169.896 57.1912 170.334 57.3019 170.733 57.5234C171.14 57.7359 171.446 58.0592 171.65 58.4932C171.791 58.2009 171.986 57.9574 172.234 57.7625C172.482 57.5676 172.757 57.4259 173.058 57.3374C173.359 57.2399 173.656 57.1912 173.948 57.1912C174.373 57.1912 174.772 57.2798 175.144 57.4569C175.516 57.6341 175.817 57.9042 176.047 58.2673C176.277 58.6305 176.393 59.0955 176.393 59.6623V63.9668H174.971V59.8882C174.971 59.3479 174.843 58.9582 174.586 58.7191C174.329 58.4799 174.001 58.3603 173.603 58.3603C173.293 58.3603 173.005 58.4356 172.739 58.5862C172.482 58.7368 172.274 58.9626 172.115 59.2638C171.955 59.556 171.876 59.9192 171.876 60.3532V63.9668H170.454V59.8882C170.454 59.3479 170.326 58.9582 170.069 58.7191C169.812 58.4799 169.484 58.3603 169.086 58.3603C168.82 58.3603 168.554 58.4312 168.289 58.5729C168.023 58.7146 167.801 58.936 167.624 59.2372C167.447 59.5383 167.359 59.9369 167.359 60.4329V63.9668H165.937Z" fill="white"/>
<path d="M241.307 17.7235C245.245 17.1287 248.789 20.1778 248.789 24.1604V47.3883C248.789 51.3224 245.326 54.3575 241.426 53.8421L227.798 52.041V19.7639L241.307 17.7235Z" fill="#9191D6" stroke="#737373" stroke-width="0.265709"/>
<path d="M241.307 64.2513C245.245 63.6565 248.789 66.7056 248.789 70.6882V93.9162C248.789 97.8502 245.326 100.885 241.426 100.37L227.798 98.5688V66.2917L241.307 64.2513Z" fill="#9191D6" stroke="#737373" stroke-width="0.265709"/>
</svg>
