<svg width="89" height="89" viewBox="0 0 89 89" fill="none" xmlns="http://www.w3.org/2000/svg">
<g clip-path="url(#clip0_219_377953)">
<path d="M84.2379 9.51938H52.7595C51.8276 9.5218 50.9346 9.89373 50.2764 10.5536C49.6183 11.2135 49.2487 12.1074 49.2487 13.0394V30.9144C49.2511 31.8448 49.6218 32.7364 50.2797 33.3942C50.9376 34.0521 51.8291 34.4228 52.7595 34.4252H84.2379C85.1682 34.4228 86.0598 34.0521 86.7177 33.3942C87.3756 32.7364 87.7463 31.8448 87.7487 30.9144V13.0394C87.7487 12.1074 87.3791 11.2135 86.721 10.5536C86.0628 9.89373 85.1698 9.5218 84.2379 9.51938ZM57.9479 16.1652H54.5195C54.3092 16.1815 54.0977 16.1542 53.8984 16.0849C53.6991 16.0156 53.5163 15.9058 53.3614 15.7625C53.2065 15.6192 53.083 15.4454 52.9985 15.252C52.9139 15.0587 52.8703 14.85 52.8703 14.639C52.8703 14.428 52.9139 14.2192 52.9985 14.0259C53.083 13.8325 53.2065 13.6587 53.3614 13.5154C53.5163 13.3721 53.6991 13.2624 53.8984 13.193C54.0977 13.1237 54.3092 13.0964 54.5195 13.1127H57.9479C58.1582 13.0964 58.3697 13.1237 58.569 13.193C58.7683 13.2624 58.9511 13.3721 59.106 13.5154C59.2609 13.6587 59.3844 13.8325 59.4689 14.0259C59.5534 14.2192 59.5971 14.428 59.5971 14.639C59.5971 14.85 59.5534 15.0587 59.4689 15.252C59.3844 15.4454 59.2609 15.6192 59.106 15.7625C58.9511 15.9058 58.7683 16.0156 58.569 16.0849C58.3697 16.1542 58.1582 16.1815 57.9479 16.1652ZM84.2379 36.2585H52.7595C51.8511 36.2578 50.9579 36.0242 50.1654 35.5802C49.5771 36.224 49.2503 37.064 49.2487 37.936V81.1752H87.7487V37.936C87.7471 37.064 87.4203 36.224 86.832 35.5802C86.0395 36.0242 85.1463 36.2578 84.2379 36.2585ZM57.9479 41.7585H54.5195C54.3092 41.7749 54.0977 41.7475 53.8984 41.6782C53.6991 41.6089 53.5163 41.4991 53.3614 41.3558C53.2065 41.2125 53.083 41.0387 52.9985 40.8454C52.9139 40.652 52.8703 40.4433 52.8703 40.2323C52.8703 40.0213 52.9139 39.8126 52.9985 39.6192C53.083 39.4259 53.2065 39.2521 53.3614 39.1088C53.5163 38.9654 53.6991 38.8557 53.8984 38.7864C54.0977 38.7171 54.3092 38.6897 54.5195 38.706H57.9479C58.1582 38.6897 58.3697 38.7171 58.569 38.7864C58.7683 38.8557 58.9511 38.9654 59.106 39.1088C59.2609 39.2521 59.3844 39.4259 59.4689 39.6192C59.5534 39.8126 59.5971 40.0213 59.5971 40.2323C59.5971 40.4433 59.5534 40.652 59.4689 40.8454C59.3844 41.0387 59.2609 41.2125 59.106 41.3558C58.9511 41.4991 58.7683 41.6089 58.569 41.6782C58.3697 41.7475 58.1582 41.7749 57.9479 41.7585ZM49.2487 83.0085H55.8945V88.0502H49.2487V83.0085ZM81.1029 83.0085H87.7487V88.0502H81.1029V83.0085ZM57.7279 83.0085H79.2695V88.0502H57.7279V83.0085ZM84.2379 7.43854C84.2259 6.93356 84.0168 6.45329 83.6554 6.10042C83.294 5.74754 82.8088 5.55007 82.3037 5.55021H77.1704C76.9031 5.54871 76.6385 5.60343 76.3937 5.71082C76.1489 5.8182 75.9294 5.97586 75.7495 6.17354L74.3195 7.68604H84.2379V7.43854ZM1.58203 58.946H47.4154V83.0085H1.58203V58.946ZM1.58203 52.3002H47.4154V57.1127H1.58203V52.3002ZM3.64453 84.8419H47.4154V88.0502H3.64453V84.8419ZM40.082 1.88354H1.58203V32.5919H40.082V1.88354ZM36.4154 28.9252H5.2487V5.55021H36.4154V28.9252Z" fill="#9191D6"/>
<path d="M17.6977 7.38354H7.08266V27.0919H17.6977V7.38354ZM15.3327 18.3102C15.3327 18.5533 15.2361 18.7865 15.0642 18.9584C14.8923 19.1303 14.6591 19.2269 14.416 19.2269C14.1729 19.2269 13.9397 19.1303 13.7678 18.9584C13.5959 18.7865 13.4993 18.5533 13.4993 18.3102V16.1652C13.4993 15.9221 13.5959 15.6889 13.7678 15.517C13.9397 15.3451 14.1729 15.2485 14.416 15.2485C14.6591 15.2485 14.8923 15.3451 15.0642 15.517C15.2361 15.6889 15.3327 15.9221 15.3327 16.1652V18.3102ZM34.5827 7.38354H23.9677V27.0919H34.5827V7.38354ZM28.166 18.3102C28.166 18.5533 28.0694 18.7865 27.8975 18.9584C27.7256 19.1303 27.4924 19.2269 27.2493 19.2269C27.0062 19.2269 26.773 19.1303 26.6011 18.9584C26.4292 18.7865 26.3327 18.5533 26.3327 18.3102V16.1652C26.3327 15.9221 26.4292 15.6889 26.6011 15.517C26.773 15.3451 27.0062 15.2485 27.2493 15.2485C27.4924 15.2485 27.7256 15.3451 27.8975 15.517C28.0694 15.6889 28.166 15.9221 28.166 16.1652V18.3102ZM19.531 7.38354H22.1343V27.0919H19.531V7.38354ZM23.9677 50.4669V39.696H3.53516V50.4669H23.9677ZM15.5618 43.3627H20.301V48.6335H15.5618V43.3627ZM7.20182 43.3627H13.7285V48.6335H7.20182V43.3627Z" fill="#9191D6"/>
</g>
<defs>
<clipPath id="clip0_219_377953">
<rect width="88" height="88" fill="white" transform="translate(0.666016 0.966797)"/>
</clipPath>
</defs>
</svg>
