<svg width="85" height="85" viewBox="0 0 85 85" fill="none" xmlns="http://www.w3.org/2000/svg">
<path d="M27.4968 42.9243L27.7379 42.6126C27.6782 42.571 27.6068 42.5495 27.534 42.5514C27.4801 42.5513 27.4267 42.5618 27.3769 42.5824C27.3271 42.603 27.2818 42.6333 27.2438 42.6715C27.1782 42.7337 27.1361 42.8166 27.1244 42.9062C27.1127 42.9958 27.1322 43.0867 27.1796 43.1637L27.4968 42.9243ZM27.333 43.3184C27.4102 43.365 27.5007 43.3845 27.5902 43.3739C27.6797 43.3632 27.763 43.323 27.8271 43.2596C27.8911 43.1962 27.9322 43.1132 27.9438 43.0238C27.9553 42.9344 27.9367 42.8437 27.8909 42.7661L27.5752 43.0052L27.333 43.3184ZM35.2732 43.3184C35.3503 43.365 35.4408 43.3845 35.5303 43.3739C35.6198 43.3632 35.7032 43.323 35.7672 43.2596C35.8313 43.1962 35.8723 43.1132 35.8839 43.0238C35.8954 42.9344 35.8768 42.8437 35.831 42.7661L35.5153 43.005L35.2732 43.3184ZM35.4369 42.9243L35.6781 42.6126C35.6184 42.5709 35.5469 42.5495 35.4741 42.5514C35.4203 42.5513 35.367 42.5619 35.3172 42.5825C35.2675 42.6031 35.2223 42.6333 35.1842 42.6715C35.1187 42.7337 35.0765 42.8166 35.0649 42.9062C35.0532 42.9958 35.0727 43.0867 35.1201 43.1637L35.4369 42.9243Z" fill="#9191D6"/>
<path d="M41.6816 45.9199V40.0137H25.1113V45.9199H41.6816ZM34.6125 42.0938C34.8326 41.8798 35.1235 41.7541 35.4301 41.7404C35.7368 41.7267 36.0377 41.8261 36.2759 42.0197C36.3336 42.0642 36.3851 42.1161 36.429 42.1742C36.6202 42.4143 36.7167 42.7163 36.7 43.0228C36.6834 43.3292 36.5549 43.619 36.3388 43.837C36.1103 44.0642 35.8009 44.1914 35.4786 44.1905C35.187 44.1891 34.9041 44.0906 34.6747 43.9105C34.6172 43.8661 34.5659 43.8142 34.5221 43.7563C34.3309 43.5162 34.2345 43.2143 34.2512 42.9079C34.2679 42.6014 34.3964 42.3118 34.6125 42.0938ZM30.6422 42.0938C30.8622 41.8798 31.1532 41.754 31.4598 41.7403C31.7665 41.7267 32.0674 41.8261 32.3056 42.0197C32.3633 42.0641 32.4148 42.1161 32.4587 42.1742C32.6499 42.4143 32.7464 42.7162 32.7298 43.0227C32.7132 43.3292 32.5847 43.619 32.3686 43.837C32.14 44.0642 31.8306 44.1913 31.5083 44.1905C31.2169 44.1888 30.9344 44.0903 30.7052 43.9105C30.6477 43.8661 30.5964 43.8142 30.5526 43.7563C30.3614 43.5163 30.2649 43.2144 30.2815 42.908C30.298 42.6016 30.4263 42.3119 30.6422 42.0938ZM26.6719 42.0938C26.8919 41.8798 27.1829 41.7541 27.4895 41.7404C27.7961 41.7267 28.0971 41.8261 28.3353 42.0197C28.393 42.0642 28.4444 42.1161 28.4884 42.1742C28.6795 42.4143 28.7759 42.7163 28.7593 43.0227C28.7427 43.3292 28.6142 43.6189 28.3982 43.837C28.1696 44.0642 27.8602 44.1913 27.538 44.1905C27.2463 44.1891 26.9635 44.0906 26.7341 43.9105C26.6766 43.8661 26.6252 43.8143 26.5815 43.7563C26.3904 43.5161 26.2941 43.2142 26.3108 42.9078C26.3276 42.6013 26.4562 42.3117 26.6724 42.0938H26.6719Z" fill="#9191D6"/>
<path d="M31.3035 43.3184C31.3807 43.365 31.4712 43.3845 31.5607 43.3739C31.6502 43.3632 31.7335 43.323 31.7976 43.2596C31.8616 43.1962 31.9027 43.1132 31.9143 43.0238C31.9258 42.9344 31.9072 42.8438 31.8614 42.7661L31.5455 43.0052L31.3035 43.3184ZM31.4671 42.9243L31.7083 42.6126C31.6486 42.571 31.5771 42.5495 31.5044 42.5514C31.4505 42.5513 31.3972 42.5619 31.3475 42.5825C31.2978 42.6031 31.2526 42.6333 31.2146 42.6715C31.1491 42.7337 31.1069 42.8166 31.0952 42.9062C31.0835 42.9958 31.103 43.0867 31.1505 43.1637L31.4671 42.9243ZM27.3332 54.4033C27.4104 54.4499 27.5009 54.4694 27.5904 54.4588C27.6799 54.4481 27.7632 54.4079 27.8273 54.3445C27.8913 54.2811 27.9324 54.1981 27.9439 54.1087C27.9555 54.0193 27.9369 53.9286 27.891 53.851L27.5754 54.0901L27.3332 54.4033ZM31.3034 54.4033C31.3805 54.4499 31.471 54.4694 31.5605 54.4588C31.65 54.4481 31.7334 54.4079 31.7974 54.3445C31.8615 54.2811 31.9025 54.1981 31.9141 54.1087C31.9256 54.0193 31.907 53.9286 31.8612 53.851L31.5454 54.0901L31.3034 54.4033ZM35.2735 54.4033C35.3507 54.4499 35.4412 54.4694 35.5307 54.4588C35.6202 54.4481 35.7035 54.4079 35.7676 54.3445C35.8316 54.2811 35.8727 54.1981 35.8842 54.1087C35.8958 54.0193 35.8772 53.9286 35.8313 53.851L35.5157 54.0899L35.2735 54.4033ZM27.4968 54.0095L27.7383 53.6978C27.6786 53.6562 27.6071 53.6348 27.5344 53.6366C27.4805 53.6365 27.4272 53.6471 27.3774 53.6677C27.3277 53.6883 27.2825 53.7186 27.2445 53.7567C27.1789 53.8189 27.1368 53.9018 27.1251 53.9914C27.1134 54.081 27.1329 54.1719 27.1803 54.2489L27.4968 54.0095ZM35.4369 54.0095L35.6784 53.6978C35.6187 53.6562 35.5473 53.6347 35.4745 53.6366C35.4206 53.6365 35.3673 53.6471 35.3176 53.6677C35.2678 53.6883 35.2226 53.7186 35.1846 53.7567C35.1191 53.8189 35.0769 53.9018 35.0653 53.9914C35.0536 54.0811 35.0732 54.172 35.1206 54.2489L35.4369 54.0095ZM21.666 53.3027H23.4707V50.3168C23.4707 49.8638 23.8912 49.5293 24.3443 49.5293H42.5359C42.6401 49.5262 42.7438 49.5445 42.8407 49.583C42.9376 49.6215 43.0256 49.6794 43.0992 49.7531C43.1729 49.8269 43.2307 49.915 43.269 50.0119C43.3074 50.1088 43.3255 50.2126 43.3223 50.3168V53.3027H45.291V43.7871H43.3223V46.6991C43.3312 46.9173 43.2536 47.1303 43.1064 47.2916C42.9591 47.453 42.7541 47.5496 42.5359 47.5605H24.3443C24.117 47.5533 23.9008 47.4606 23.7388 47.3009C23.5769 47.1412 23.4811 46.9263 23.4707 46.6991V43.7871H21.666V53.3027ZM21.666 20.6543H45.291V23.1152H21.666V20.6543ZM21.666 30.9902H23.4707V28.1464C23.4707 27.6934 23.8912 27.3809 24.3443 27.3809H42.5359C42.6389 27.3754 42.7418 27.3912 42.8383 27.4275C42.9348 27.4637 43.0228 27.5196 43.0967 27.5915C43.1705 27.6634 43.2287 27.7498 43.2675 27.8453C43.3064 27.9408 43.325 28.0433 43.3223 28.1464V30.9902H45.291V24.7559H21.666V30.9902ZM21.666 42.1465H23.4707V39.2313C23.4812 39.0044 23.5771 38.7899 23.7391 38.6307C23.9012 38.4716 24.1173 38.3795 24.3443 38.373H42.5359C42.7538 38.3832 42.9587 38.4792 43.1061 38.64C43.2534 38.8008 43.3311 39.0133 43.3223 39.2313V42.1465H45.291V32.6309H43.3223V35.6142C43.3255 35.7185 43.3074 35.8224 43.2691 35.9194C43.2307 36.0165 43.173 36.1047 43.0994 36.1787C43.0258 36.2527 42.9378 36.3108 42.8409 36.3496C42.744 36.3884 42.6402 36.407 42.5359 36.4043H24.3443C23.8912 36.4043 23.4707 36.0671 23.4707 35.6142V32.6309H21.666V42.1465Z" fill="#9191D6"/>
<path d="M8.37695 76.1074H15.4316V14.7899C15.4316 14.3369 15.7442 13.9277 16.1972 13.9277H62.8237C63.0478 13.9364 63.26 14.0306 63.4167 14.1909C63.5734 14.3513 63.6626 14.5657 63.666 14.7899V76.1074H70.7207V53.1387H66.6479C66.4305 53.1464 66.219 53.0676 66.0598 52.9194C65.9005 52.7712 65.8067 52.5659 65.7988 52.3485V32.7647C65.8067 32.5474 65.9005 32.3421 66.0598 32.1939C66.219 32.0457 66.4305 31.9669 66.6479 31.9746H70.7207V4.9043H8.37695V76.1074ZM32.3301 7.03711C32.3301 6.81955 32.4165 6.6109 32.5703 6.45706C32.7242 6.30322 32.9328 6.2168 33.1504 6.2168H45.9473C46.1648 6.2168 46.3735 6.30322 46.5273 6.45706C46.6812 6.6109 46.7676 6.81955 46.7676 7.03711V11.6309C46.7676 11.8484 46.6812 12.0571 46.5273 12.2109C46.3735 12.3647 46.1648 12.4512 45.9473 12.4512H33.1504C32.9328 12.4512 32.7242 12.3647 32.5703 12.2109C32.4165 12.0571 32.3301 11.8484 32.3301 11.6309V7.03711ZM10.8379 15.0635C10.8379 14.846 10.9243 14.6373 11.0782 14.4835C11.232 14.3297 11.4406 14.2432 11.6582 14.2432C11.8758 14.2432 12.0844 14.3297 12.2383 14.4835C12.3921 14.6373 12.4785 14.846 12.4785 15.0635V15.623C12.4785 15.8406 12.3921 16.0492 12.2383 16.203C12.0844 16.3569 11.8758 16.4433 11.6582 16.4433C11.4406 16.4433 11.232 16.3569 11.0782 16.203C10.9243 16.0492 10.8379 15.8406 10.8379 15.623V15.0635ZM10.8379 18.7402C10.8379 18.5226 10.9243 18.314 11.0782 18.1601C11.232 18.0063 11.4406 17.9199 11.6582 17.9199C11.8758 17.9199 12.0844 18.0063 12.2383 18.1601C12.3921 18.314 12.4785 18.5226 12.4785 18.7402V35.059C12.4785 35.2765 12.3921 35.4852 12.2383 35.639C12.0844 35.7929 11.8758 35.8793 11.6582 35.8793C11.4406 35.8793 11.232 35.7929 11.0782 35.639C10.9243 35.4852 10.8379 35.2765 10.8379 35.059V18.7402Z" fill="#9191D6"/>
<path d="M35.4373 31.8394L35.6784 31.5277C35.6187 31.4861 35.5473 31.4646 35.4745 31.4665C35.4206 31.4664 35.3673 31.477 35.3176 31.4976C35.2678 31.5182 35.2226 31.5485 35.1846 31.5866C35.119 31.6488 35.0769 31.7317 35.0652 31.8213C35.0535 31.9109 35.073 32.0018 35.1205 32.0788L35.4373 31.8394ZM33.9707 7.85742H45.127V10.8105H33.9707V7.85742ZM35.2735 32.2335C35.3507 32.2801 35.4412 32.2996 35.5307 32.289C35.6202 32.2783 35.7035 32.2381 35.7676 32.1747C35.8316 32.1113 35.8727 32.0283 35.8842 31.9389C35.8958 31.8496 35.8772 31.7589 35.8313 31.6813L35.5157 31.9201L35.2735 32.2335Z" fill="#9191D6"/>
<path d="M41.6816 34.7637V29.0215H25.1113V34.7637H41.6816ZM34.6125 31.0089C34.8326 30.795 35.1235 30.6693 35.4301 30.6556C35.7367 30.642 36.0377 30.7413 36.2759 30.9348C36.3336 30.9793 36.3851 31.0313 36.429 31.0893C36.6202 31.3294 36.7167 31.6314 36.7 31.9379C36.6834 32.2444 36.5549 32.5341 36.3388 32.7521C36.1103 32.9793 35.8009 33.1065 35.4786 33.1057C35.187 33.1042 34.9041 33.0057 34.6747 32.8256C34.6172 32.7813 34.5659 32.7294 34.5221 32.6715C34.3309 32.4314 34.2345 32.1295 34.2512 31.8231C34.2679 31.5166 34.3964 31.2269 34.6125 31.0089ZM30.6422 31.0089C30.8623 30.795 31.1532 30.6692 31.4598 30.6556C31.7664 30.6419 32.0674 30.7413 32.3056 30.9348C32.3633 30.9793 32.4148 31.0312 32.4587 31.0893C32.6499 31.3294 32.7464 31.6313 32.7298 31.9378C32.7132 32.2443 32.5847 32.5341 32.3686 32.7521C32.14 32.9793 31.8306 33.1065 31.5083 33.1057C31.2169 33.1039 30.9344 33.0054 30.7052 32.8256C30.6477 32.7813 30.5964 32.7294 30.5526 32.6715C30.3614 32.4315 30.2649 32.1296 30.2814 31.8232C30.298 31.5167 30.4262 31.227 30.6422 31.0089ZM26.6719 31.0089C26.8919 30.795 27.1829 30.6692 27.4895 30.6556C27.7961 30.6419 28.0971 30.7413 28.3353 30.9348C28.393 30.9793 28.4444 31.0313 28.4884 31.0893C28.6795 31.3295 28.7759 31.6314 28.7593 31.9379C28.7427 32.2443 28.6142 32.5341 28.3982 32.7521C28.1696 32.9793 27.8602 33.1065 27.538 33.1057C27.2463 33.1042 26.9635 33.0057 26.7341 32.8256C26.6766 32.7813 26.6252 32.7295 26.5815 32.6715C26.3904 32.4314 26.2941 32.1294 26.3108 31.823C26.3276 31.5165 26.4562 31.2268 26.6724 31.0089H26.6719Z" fill="#9191D6"/>
<path d="M27.4964 31.8394L27.7376 31.5277C27.6779 31.4861 27.6064 31.4647 27.5337 31.4665C27.4798 31.4664 27.4265 31.477 27.3767 31.4976C27.327 31.5182 27.2818 31.5485 27.2438 31.5866C27.1782 31.6488 27.1361 31.7317 27.1244 31.8213C27.1127 31.9109 27.1322 32.0018 27.1796 32.0788L27.4964 31.8394ZM31.3029 32.2335C31.38 32.2801 31.4705 32.2996 31.56 32.289C31.6495 32.2783 31.7329 32.2381 31.7969 32.1747C31.861 32.1113 31.902 32.0283 31.9136 31.9389C31.9251 31.8496 31.9065 31.7589 31.8607 31.6813L31.5449 31.9203L31.3029 32.2335ZM27.3327 32.2335C27.4099 32.2801 27.5003 32.2996 27.5898 32.289C27.6793 32.2783 27.7627 32.2381 27.8268 32.1747C27.8908 32.1113 27.9319 32.0283 27.9434 31.9389C27.955 31.8496 27.9364 31.7589 27.8905 31.6813L27.5749 31.9203L27.3327 32.2335ZM31.4664 31.8394L31.7076 31.5277C31.6479 31.4861 31.5764 31.4646 31.5037 31.4665C31.4498 31.4664 31.3965 31.477 31.3468 31.4976C31.2971 31.5182 31.2519 31.5485 31.2139 31.5866C31.1484 31.6488 31.1062 31.7317 31.0945 31.8213C31.0829 31.9109 31.1024 32.0018 31.1498 32.0788L31.4664 31.8394ZM31.4663 54.0095L31.7076 53.6978C31.6479 53.6562 31.5765 53.6347 31.5038 53.6366C31.45 53.6365 31.3966 53.6471 31.3468 53.6677C31.297 53.6883 31.2518 53.7186 31.2138 53.7567C31.1482 53.8189 31.1061 53.9018 31.0945 53.9914C31.0828 54.0811 31.1024 54.172 31.1498 54.2489L31.4663 54.0095ZM59.582 31.5272C59.5223 31.4856 59.4508 31.4641 59.3781 31.466C59.3242 31.4659 59.2709 31.4765 59.2211 31.4971C59.1714 31.5177 59.1262 31.548 59.0882 31.5861C59.0226 31.6483 58.9805 31.7312 58.9689 31.8209C58.9572 31.9105 58.9767 32.0014 59.0242 32.0783L59.3408 31.8388L59.582 31.5272ZM62.0247 36.4043H56.188C55.7351 36.4043 55.2981 36.0671 55.2981 35.6142V32.6309H53.4935V42.1465H55.2981V39.2313C55.3124 39.0029 55.4116 38.7881 55.5763 38.6293C55.7411 38.4704 55.9593 38.379 56.188 38.373H62.0247V36.4043ZM59.582 42.6121C59.5223 42.5705 59.4508 42.549 59.3781 42.5509C59.3242 42.5508 59.2709 42.5614 59.2211 42.582C59.1714 42.6026 59.1262 42.6329 59.0882 42.671C59.0226 42.7332 58.9805 42.8161 58.9689 42.9057C58.9572 42.9954 58.9767 43.0863 59.0242 43.1632L59.3408 42.9236L59.582 42.6121ZM62.0247 24.5918H53.4935V30.9902H55.2981V28.1464C55.2981 27.6934 55.7351 27.3809 56.188 27.3809H62.0247V24.5918ZM59.4189 43.0052L59.1772 43.3184C59.2544 43.365 59.3449 43.3845 59.4344 43.3739C59.5239 43.3632 59.6073 43.323 59.6713 43.2596C59.7354 43.1962 59.7764 43.1132 59.788 43.0238C59.7995 42.9344 59.7809 42.8438 59.7351 42.7661L59.4189 43.0052Z" fill="#9191D6"/>
<path d="M62.0254 40.0137H56.9395V45.9199H62.0254V40.0137ZM60.2432 43.8363C60.0146 44.0635 59.7051 44.1907 59.3828 44.1899C59.0917 44.1883 58.8093 44.09 58.5801 43.9105C58.5226 43.8661 58.4713 43.8142 58.4275 43.7563C58.2336 43.5174 58.1354 43.215 58.152 42.9078C58.1687 42.6006 58.2989 42.3105 58.5175 42.094C58.7361 41.8775 59.0273 41.75 59.3347 41.7362C59.642 41.7225 59.9435 41.8235 60.1805 42.0197C60.2382 42.0641 60.2897 42.1161 60.3336 42.1742C60.5246 42.4143 60.6209 42.7161 60.6042 43.0224C60.5876 43.3288 60.4591 43.6184 60.2432 43.8363ZM62.0254 29.0215H56.9395V34.7637H62.0254V29.0215ZM60.2432 32.7521C60.0146 32.9793 59.7051 33.1065 59.3828 33.1057C59.0916 33.1038 58.8092 33.0053 58.5801 32.8256C58.5226 32.7813 58.4713 32.7294 58.4275 32.6715C58.2334 32.4327 58.1351 32.1302 58.1516 31.8229C58.1682 31.5156 58.2984 31.2254 58.517 31.0088C58.7357 30.7922 59.027 30.6647 59.3345 30.651C59.6419 30.6373 59.9435 30.7385 60.1805 30.9348C60.2382 30.9793 60.2897 31.0312 60.3336 31.0893C60.5248 31.3295 60.6212 31.6314 60.6045 31.9379C60.5879 32.2444 60.4593 32.5341 60.2432 32.7521ZM70.3926 42.4746H76.791V46.7402H70.3926V42.4746Z" fill="#9191D6"/>
<path d="M67.4395 51.498H79.7441V33.6152H67.4395V51.498ZM68.752 41.6861C68.76 41.4611 68.8536 41.2476 69.0137 41.0893C69.1737 40.9309 69.3882 40.8396 69.6133 40.834H70.8848V39.1074C70.8759 38.7463 70.9393 38.3871 71.0714 38.0509C71.2034 37.7146 71.4014 37.4083 71.6536 37.1497C71.9059 36.8912 72.2073 36.6857 72.5402 36.5454C72.873 36.4052 73.2306 36.3329 73.5918 36.3329C73.953 36.3329 74.3106 36.4052 74.6434 36.5454C74.9763 36.6857 75.2777 36.8912 75.53 37.1497C75.7822 37.4083 75.9802 37.7146 76.1122 38.0509C76.2443 38.3871 76.3077 38.7463 76.2988 39.1074V40.834H77.5772C77.8016 40.8399 78.0151 40.9315 78.174 41.09C78.333 41.2485 78.4251 41.4618 78.4316 41.6861V47.5204C78.4253 47.7455 78.3334 47.9598 78.1747 48.1197C78.016 48.2796 77.8023 48.3729 77.5772 48.3809H69.6133C69.3874 48.3734 69.1727 48.2803 69.0128 48.1206C68.8529 47.9608 68.7597 47.7463 68.752 47.5204V41.6861Z" fill="#9191D6"/>
<path d="M74.6582 39.1074C74.6582 38.4807 74.2185 37.9708 73.5918 37.9708C72.9651 37.9708 72.5254 38.4807 72.5254 39.1074V40.834H74.6582V39.1074ZM62.0254 15.5684H17.0723V70.8574H20.0254V19.8387C20.0199 19.7335 20.0357 19.6282 20.0719 19.5292C20.108 19.4302 20.1637 19.3394 20.2357 19.2624C20.3077 19.1854 20.3944 19.1237 20.4908 19.081C20.5871 19.0382 20.6911 19.0153 20.7965 19.0137H46.0829C46.304 19.0137 46.5163 19.0999 46.6747 19.254C46.8332 19.408 46.9254 19.6178 46.9316 19.8387V70.8574H51.8535V19.8387C51.8499 19.7326 51.8675 19.6267 51.9053 19.5274C51.9431 19.4281 52.0003 19.3374 52.0737 19.2605C52.147 19.1837 52.235 19.1223 52.3324 19.0799C52.4299 19.0375 52.5348 19.015 52.641 19.0137H62.0254V15.5684ZM5.58789 77.748H73.3457V81.0293H5.58789V77.748Z" fill="#9191D6"/>
<path d="M53.4941 20.6543H62.0254V22.9512H53.4941V20.6543ZM59.4196 31.9203L59.1779 32.2335C59.2551 32.2801 59.3456 32.2996 59.4351 32.289C59.5246 32.2783 59.6079 32.2381 59.672 32.1747C59.736 32.1113 59.7771 32.0283 59.7886 31.9389C59.8002 31.8496 59.7816 31.7589 59.7357 31.6813L59.4196 31.9203ZM59.5827 53.6965C59.523 53.6549 59.4516 53.6334 59.3789 53.6353C59.325 53.6352 59.2717 53.6458 59.2219 53.6664C59.1721 53.687 59.1269 53.7172 59.0888 53.7554C59.0233 53.8176 58.9812 53.9005 58.9695 53.9901C58.9579 54.0797 58.9774 54.1706 59.0249 54.2476L59.3413 54.0082L59.5827 53.6965ZM62.0254 58.5527H56.1887C55.7357 58.5527 55.2988 58.2369 55.2988 57.7839V54.9434H53.4941V70.8574H62.0254V58.5527ZM21.666 70.8574H45.291V54.9434H43.3223V57.7839C43.3251 57.8872 43.3065 57.9898 43.2677 58.0855C43.229 58.1813 43.1709 58.2679 43.097 58.3401C43.0232 58.4123 42.9352 58.4684 42.8387 58.505C42.7421 58.5416 42.639 58.5579 42.5359 58.5527H24.3443C23.8912 58.5527 23.4707 58.2369 23.4707 57.7839V54.9434H21.666V70.8574ZM59.4196 54.0902L59.1778 54.4034C59.2549 54.45 59.3454 54.4696 59.4349 54.4589C59.5244 54.4483 59.6078 54.408 59.6718 54.3446C59.7359 54.2812 59.7769 54.1983 59.7885 54.1089C59.8 54.0195 59.7814 53.9288 59.7356 53.8512L59.4196 54.0902ZM17.0723 72.498H62.0254V76.1074H17.0723V72.498Z" fill="#9191D6"/>
<path d="M41.6816 56.9121V51.1699H25.1113V56.9121H41.6816ZM34.6125 53.1785C34.8327 52.9647 35.1236 52.839 35.4303 52.8254C35.7369 52.8118 36.0378 52.9111 36.2761 53.1045C36.3337 53.1491 36.3851 53.201 36.429 53.2591C36.6202 53.4992 36.7167 53.8011 36.7001 54.1075C36.6835 54.414 36.555 54.7037 36.3389 54.9217C36.1104 55.149 35.8009 55.2762 35.4786 55.2754C35.187 55.274 34.9041 55.1754 34.6747 54.9954C34.6173 54.9509 34.5659 54.8991 34.5221 54.8412C34.3309 54.601 34.2345 54.2991 34.2512 53.9927C34.2679 53.6862 34.3964 53.3965 34.6125 53.1785ZM30.6422 53.1785C30.8623 52.9647 31.1533 52.839 31.4599 52.8254C31.7665 52.8117 32.0674 52.9111 32.3056 53.1045C32.3632 53.1491 32.4146 53.201 32.4585 53.2591C32.6498 53.4992 32.7462 53.8011 32.7296 54.1075C32.713 54.414 32.5845 54.7037 32.3685 54.9217C32.1399 55.149 31.8305 55.2763 31.5081 55.2754C31.2168 55.2737 30.9343 55.1752 30.705 54.9954C30.6476 54.9509 30.5963 54.8991 30.5525 54.8412C30.3612 54.6011 30.2648 54.2992 30.2814 53.9927C30.298 53.6863 30.4265 53.3965 30.6425 53.1785H30.6422ZM26.6719 53.1785C26.892 52.9647 27.1829 52.839 27.4895 52.8254C27.7961 52.8117 28.0971 52.9111 28.3353 53.1045C28.3929 53.149 28.4444 53.201 28.4882 53.2591C28.6795 53.4992 28.7759 53.8011 28.7593 54.1075C28.7427 54.414 28.6142 54.7037 28.3982 54.9217C28.1697 55.149 27.8603 55.2762 27.538 55.2754C27.2463 55.274 26.9635 55.1754 26.7341 54.9954C26.6766 54.951 26.6253 54.8991 26.5815 54.8412C26.3904 54.601 26.2941 54.299 26.3108 53.9926C26.3276 53.6861 26.4562 53.3964 26.6724 53.1785H26.6719ZM62.0254 51.1699H56.9395V56.9121H62.0254V51.1699ZM60.2432 54.9217C60.0146 55.149 59.7052 55.2763 59.3828 55.2754C59.0916 55.2736 58.8092 55.1751 58.5801 54.9954C58.5226 54.9509 58.4713 54.8991 58.4275 54.8412C58.2334 54.6023 58.1351 54.2998 58.1517 53.9925C58.1683 53.6852 58.2986 53.395 58.5172 53.1785C58.7359 52.9619 59.0272 52.8344 59.3347 52.8207C59.6421 52.807 59.9437 52.9082 60.1807 53.1045C60.2383 53.1491 60.2897 53.201 60.3336 53.2591C60.5248 53.4992 60.6212 53.8011 60.6045 54.1076C60.5878 54.4141 60.4593 54.7037 60.2432 54.9217Z" fill="#9191D6"/>
<path d="M62.0254 47.5605H56.1887C55.9597 47.5538 55.7414 47.4617 55.5768 47.3023C55.4121 47.1429 55.313 46.9278 55.2988 46.6991V43.7871H53.4941V53.3027H55.2988V50.3168C55.2988 49.8638 55.7357 49.5293 56.1887 49.5293H62.0254V47.5605Z" fill="#9191D6"/>
</svg>
